HIERARCHY
ROOT Hips
{
	OFFSET 0.000000 0.000000 0.000000
	CHANNELS 6 Xposition Yposition Zposition Xrotation Yrotation Zrotation
	JOINT LeftUpLeg_virtual
	{
		OFFSET 0.000000 0.000000 0.000000
		CHANNELS 3 Xrotation Yrotation Zrotation
		JOINT LeftUpLeg
		{
			OFFSET 15.427100 -6.655098 0.678600
			CHANNELS 3 Xrotation Yrotation Zrotation
			JOINT LeftLeg
			{
				OFFSET 4.081073 -39.591068 13.024000
				CHANNELS 3 Xrotation Yrotation Zrotation
				JOINT LeftFoot
				{
					OFFSET -4.081074 -37.707932 -15.979700
					CHANNELS 3 Xrotation Yrotation Zrotation
					JOINT LeftToeBase
					{
						OFFSET 5.346399 -15.068900 20.645000
						CHANNELS 3 Xrotation Yrotation Zrotation
						JOINT LeftToe_End
						{
							OFFSET 2.754700 0.931300 11.300900
							CHANNELS 3 Xrotation Yrotation Zrotation
							End Site
							{
								OFFSET 0 0 0
							}
						}
					}
				}
			}
		}
	}
	JOINT RightUpLeg_virtual
	{
		OFFSET 0.000000 0.000000 0.000000
		CHANNELS 3 Xrotation Yrotation Zrotation
		JOINT RightUpLeg
		{
			OFFSET -15.569500 -6.655098 0.678600
			CHANNELS 3 Xrotation Yrotation Zrotation
			JOINT RightLeg
			{
				OFFSET -4.081825 -39.591045 13.023800
				CHANNELS 3 Xrotation Yrotation Zrotation
				JOINT RightFoot
				{
					OFFSET 4.081824 -37.707954 -15.979600
					CHANNELS 3 Xrotation Yrotation Zrotation
					JOINT RightToeBase
					{
						OFFSET -5.346400 -15.068900 20.645000
						CHANNELS 3 Xrotation Yrotation Zrotation
						JOINT RightToe_End
						{
							OFFSET -2.754700 0.931300 11.300900
							CHANNELS 3 Xrotation Yrotation Zrotation
							End Site
							{
								OFFSET 0 0 0
							}
						}
					}
				}
			}
		}
	}
	JOINT Spine_virtual
	{
		OFFSET 0.000000 0.000000 0.000000
		CHANNELS 3 Xrotation Yrotation Zrotation
		JOINT Spine
		{
			OFFSET -0.279200 12.230698 -2.892100
			CHANNELS 3 Xrotation Yrotation Zrotation
			JOINT Spine1
			{
				OFFSET -0.232667 10.192268 -1.242267
				CHANNELS 3 Xrotation Yrotation Zrotation
				JOINT Spine1_split
				{
					OFFSET -0.232667 10.192268 -1.242267
					CHANNELS 3 Xrotation Yrotation Zrotation
					JOINT Spine2
					{
						OFFSET -0.232667 10.192268 -1.242267
						CHANNELS 3 Xrotation Yrotation Zrotation
						JOINT Neck_virtual
						{
							OFFSET 0.000000 0.000000 0.000000
							CHANNELS 3 Xrotation Yrotation Zrotation
							JOINT Neck
							{
								OFFSET -0.418800 17.814194 8.416900
								CHANNELS 3 Xrotation Yrotation Zrotation
								JOINT Head
								{
									OFFSET 0.000000 7.031097 3.806800
									CHANNELS 3 Xrotation Yrotation Zrotation
									JOINT HeadTop_End
									{
										OFFSET 0.000000 24.646606 12.978600
										CHANNELS 3 Xrotation Yrotation Zrotation
										End Site
										{
											OFFSET 0 0 0
										}
									}
								}
							}
						}
						JOINT LeftShoulder_virtual
						{
							OFFSET 0.000000 0.000000 0.000000
							CHANNELS 3 Xrotation Yrotation Zrotation
							JOINT LeftShoulder
							{
								OFFSET 8.476499 7.247704 -3.868750
								CHANNELS 3 Xrotation Yrotation Zrotation
								JOINT LeftShoulder_split
								{
									OFFSET 8.476499 7.247704 -3.868750
									CHANNELS 3 Xrotation Yrotation Zrotation
									JOINT LeftArm
									{
										OFFSET 9.308998 -2.777710 0.208600
										CHANNELS 3 Xrotation Yrotation Zrotation
										JOINT LeftForeArm
										{
											OFFSET 29.972298 0.000000 0.000000
											CHANNELS 3 Xrotation Yrotation Zrotation
											JOINT LeftHand
											{
												OFFSET 26.026505 0.000000 0.000000
												CHANNELS 3 Xrotation Yrotation Zrotation
												End Site
												{
													OFFSET 0 0 0
												}
											}
										}
									}
								}
							}
						}
						JOINT RightShoulder_virtual
						{
							OFFSET 0.000000 0.000000 0.000000
							CHANNELS 3 Xrotation Yrotation Zrotation
							JOINT RightShoulder
							{
								OFFSET -7.570500 7.247704 -3.868750
								CHANNELS 3 Xrotation Yrotation Zrotation
								JOINT RightShoulder_split
								{
									OFFSET -7.570500 7.247704 -3.868750
									CHANNELS 3 Xrotation Yrotation Zrotation
									JOINT RightArm
									{
										OFFSET -9.308998 -2.777710 0.208500
										CHANNELS 3 Xrotation Yrotation Zrotation
										JOINT RightForeArm
										{
											OFFSET -29.972300 0.000000 0.000000
											CHANNELS 3 Xrotation Yrotation Zrotation
											JOINT RightHand
											{
												OFFSET -26.026505 0.000000 0.000000
												CHANNELS 3 Xrotation Yrotation Zrotation
												End Site
												{
													OFFSET 0 0 0
												}
											}
										}
									}
								}
							}
						}
					}
				}
			}
		}
	}
}
MOTION
Frames: 9
Frame Time: 0.03333333
-0.205043 103.644524 181.364960 0.000000 0.000000 0.000000 13.948570 22.842687 -2.950712 -9.058567 8.041942 13.371638 32.773478 20.744000 -1.265447 16.421759 -3.310827 -15.206767 -50.604038 5.299090 -6.395962 0.000000 0.000000 0.000000 14.690724 23.652838 -2.445086 -45.380958 -9.303018 -14.324923 32.380793 0.931647 5.838776 15.880292 -4.469432 9.948105 -8.916185 4.703738 -11.509810 0.000000 0.000000 0.000000 14.427144 24.182626 -3.172626 10.158288 -3.053397 13.257660 -10.989105 -4.568618 -2.436568 -0.079854 -0.316924 -0.139825 0.000000 0.000000 0.000000 -4.149985 -1.074592 -0.086452 3.485347 33.203752 -17.806474 -34.700797 -32.242290 -21.683873 0.000000 0.000000 0.000000 -6.215679 -2.348340 -2.273192 18.975848 -7.048759 36.262752 3.256796 3.370555 1.899399 -68.089685 -11.770357 16.881982 -33.352254 -20.654111 -5.348473 0.000000 0.000000 0.000000 -6.143846 -2.071497 1.917082 -1.055141 -1.970055 -39.991922 9.326533 -4.739771 -5.541110 -109.598609 13.344953 18.660046 -62.369135 51.124772 51.815895 0.000000 0.000000 0.000000 
-0.382902 99.577164 189.975510 0.000000 0.000000 0.000000 10.841840 25.451233 -3.025869 -8.969343 6.691950 15.086090 35.209683 22.492923 -3.183227 15.937367 -3.503062 -13.748910 -51.214336 6.703833 -9.071471 0.000000 0.000000 0.000000 11.634478 25.989143 -2.725993 -46.724880 -9.446407 -13.873153 35.363742 0.347344 4.737945 11.423802 -2.929796 4.536920 -5.089443 3.125185 -12.869483 0.000000 0.000000 0.000000 11.924614 26.240815 -3.377932 9.826954 -3.791164 12.786964 -10.915474 -5.105084 -2.390346 -0.005241 -0.007222 -0.137538 0.000000 0.000000 0.000000 -4.343404 -1.599163 -0.457764 3.929401 34.530339 -16.995712 -33.219650 -31.387383 -19.601069 0.000000 0.000000 0.000000 -6.032299 -3.015592 -2.128082 19.518908 -7.328970 37.149546 2.434223 3.305559 2.999338 -65.536389 -8.860252 21.031030 -35.294258 -18.282326 -5.759954 0.000000 0.000000 0.000000 -6.189347 -2.576532 1.789677 -0.492865 -1.381873 -41.104895 9.327086 -5.000571 -4.588943 -105.996148 15.490196 13.601574 -52.944027 48.813672 40.873659 0.000000 0.000000 0.000000 
-0.573748 96.423721 198.045288 0.000000 0.000000 0.000000 7.685115 28.138692 -2.920559 -11.140142 6.845806 16.383776 37.636395 23.856020 -5.115200 12.649336 -3.503377 -10.386802 -44.355791 7.304533 -12.063929 0.000000 0.000000 0.000000 8.652898 28.353906 -2.858311 -46.612448 -10.564963 -13.171350 35.049041 -0.647638 3.513467 9.494717 -1.510380 0.837693 -3.906656 1.916479 -13.470803 0.000000 0.000000 0.000000 9.418955 28.499871 -3.672292 9.447154 -4.389895 12.205834 -10.474873 -5.531030 -2.056596 0.127996 0.311601 -0.152193 0.000000 0.000000 0.000000 -4.265572 -2.021079 -0.599149 3.840740 35.704097 -16.139556 -31.940615 -30.914584 -18.137999 0.000000 0.000000 0.000000 -5.375625 -3.626512 -1.602009 19.803271 -7.448403 38.045684 2.255661 2.782906 3.709828 -62.066366 -5.163868 24.883363 -37.060876 -16.033265 -6.030592 0.000000 0.000000 0.000000 -5.890766 -3.132785 1.729607 0.303691 -0.849898 -41.506015 9.035746 -5.520354 -3.689942 -101.007351 16.777776 8.461943 -46.678968 46.439108 33.354587 0.000000 0.000000 0.000000 
-0.787507 94.736000 205.936722 0.000000 0.000000 0.000000 5.081461 30.986198 -2.921064 -14.601334 8.062194 16.965128 38.453890 23.824142 -6.352559 8.561482 -4.843287 -6.347597 -35.918565 6.233536 -12.990513 0.000000 0.000000 0.000000 6.157433 30.924378 -3.084981 -44.677982 -12.549498 -11.973988 31.188638 -1.811151 2.172863 9.549751 -0.337097 -1.114043 -5.013153 1.092708 -13.461596 0.000000 0.000000 0.000000 7.316290 30.736842 -4.096144 8.737071 -4.993283 11.537898 -9.821687 -5.788650 -1.536386 0.201644 0.512988 -0.170537 0.000000 0.000000 0.000000 -3.968676 -2.275073 -0.553284 3.876880 36.639153 -15.578782 -30.604456 -30.867862 -17.256628 0.000000 0.000000 0.000000 -4.437697 -4.116879 -0.767079 19.871730 -7.366911 39.148909 2.334155 2.137694 4.125555 -59.302523 -1.198980 27.522481 -38.547354 -15.202625 -6.489688 0.000000 0.000000 0.000000 -5.357122 -3.646488 1.710822 1.092848 -0.494264 -41.170092 9.247200 -5.864697 -2.929863 -95.864362 16.530784 3.702479 -44.728754 46.481941 30.734441 0.000000 0.000000 0.000000 
-0.991980 94.637848 213.694824 0.000000 0.000000 0.000000 3.459038 33.773530 -3.164858 -18.313426 10.204804 16.936996 37.042377 21.864329 -6.511683 5.886812 -7.752232 -2.310758 -30.577066 4.261270 -10.950123 0.000000 0.000000 0.000000 4.331822 33.749297 -3.490208 -40.834515 -15.492722 -10.124159 24.959451 -3.472937 0.733745 10.255277 0.015967 -2.418754 -6.974202 0.509282 -13.041694 0.000000 0.000000 0.000000 5.663671 32.639237 -4.510229 7.484830 -5.692434 10.798736 -9.198213 -5.839190 -1.017069 0.237279 0.689219 -0.255054 0.000000 0.000000 0.000000 -3.599481 -2.353483 -0.460058 4.567087 37.351187 -15.573581 -29.110724 -31.225668 -16.902830 0.000000 0.000000 0.000000 -3.534440 -4.433455 0.132995 19.731686 -7.165710 40.330682 2.565033 1.597127 4.386812 -58.373344 1.933514 28.667035 -39.843407 -16.234202 -7.403264 0.000000 0.000000 0.000000 -4.772313 -4.078100 1.669086 1.781561 -0.318259 -40.228260 9.737025 -6.356095 -2.554916 -91.628087 14.822170 -0.078930 -46.139683 48.674834 32.177503 0.000000 0.000000 0.000000 
-1.088823 95.696251 221.096558 0.000000 0.000000 0.000000 2.571053 36.173344 -3.573094 -21.578157 12.867089 16.311696 34.107311 18.762943 -5.826248 5.557961 -11.359373 2.450833 -28.743704 2.176988 -7.254691 0.000000 0.000000 0.000000 3.049076 36.416694 -3.923836 -35.883154 -18.649483 -8.060991 18.272201 -5.341889 -0.587638 10.735963 -0.217283 -3.555019 -8.259095 0.038821 -12.396176 0.000000 0.000000 0.000000 4.364256 34.259962 -4.854265 5.604504 -6.497741 9.970682 -8.751999 -5.713661 -0.676001 0.163480 0.901825 -0.337437 0.000000 0.000000 0.000000 -3.410292 -2.268949 -0.431599 6.166851 37.872398 -16.208117 -27.515699 -31.882223 -16.997904 0.000000 0.000000 0.000000 -2.914592 -4.573597 0.833648 19.531158 -7.121504 41.501862 3.055908 1.415204 4.676232 -59.193390 3.281937 28.813614 -40.904558 -18.085991 -8.617732 0.000000 0.000000 0.000000 -4.327017 -4.342972 1.530955 2.264614 -0.264407 -38.930548 10.417530 -6.661565 -2.208539 -88.896859 12.659294 -2.888540 -48.991936 50.437983 35.531064 0.000000 0.000000 0.000000 
-1.094048 97.378311 228.139771 0.000000 0.000000 0.000000 2.032249 37.742901 -3.973775 -23.223733 15.480818 14.674894 30.527906 15.833731 -4.294751 6.001324 -13.831894 9.084148 -26.653690 0.369813 -4.202575 0.000000 0.000000 0.000000 2.257074 39.091621 -4.279734 -31.012091 -21.300223 -6.619152 13.071830 -6.797091 -1.508965 10.985034 -0.128969 -3.954680 -8.408255 -0.299713 -11.687513 0.000000 0.000000 0.000000 3.295400 35.478110 -4.993319 3.295404 -7.327394 9.036453 -8.464459 -5.514858 -0.617839 0.063819 1.040163 -0.396738 0.000000 0.000000 0.000000 -3.609716 -2.120154 -0.529279 8.389906 38.252406 -17.274800 -26.233408 -32.712529 -17.507515 0.000000 0.000000 0.000000 -2.644269 -4.626193 1.178762 19.412113 -7.457366 42.686466 3.553123 1.780110 4.786404 -60.769723 2.922352 28.634892 -41.288282 -18.837875 -9.572783 0.000000 0.000000 0.000000 -4.088700 -4.422546 1.306945 2.458935 -0.194448 -37.683926 11.458554 -6.625841 -1.980370 -87.430103 11.122232 -4.857520 -50.919214 49.860074 38.106968 0.000000 0.000000 0.000000 
-0.893648 99.015625 234.464340 0.000000 0.000000 0.000000 1.808918 38.647922 -4.317648 -23.497429 17.491804 12.091327 27.007622 13.178269 -2.028299 5.839515 -14.945528 15.620708 -21.206650 -0.542648 -3.310342 0.000000 0.000000 0.000000 1.766135 41.117168 -4.462830 -27.089971 -23.078451 -6.074551 10.010707 -7.531992 -1.950673 11.386293 0.473127 -3.186019 -7.947300 -0.428399 -11.066349 0.000000 0.000000 0.000000 2.426565 36.201191 -4.955865 0.914368 -8.106300 8.102434 -8.289981 -5.351068 -0.791462 0.001248 1.172536 -0.413498 0.000000 0.000000 0.000000 -4.170254 -2.002514 -0.701439 10.733528 38.539291 -18.460553 -25.682345 -33.630137 -18.483214 0.000000 0.000000 0.000000 -2.679475 -4.644205 1.126998 19.396373 -8.176004 43.656592 4.103361 2.500032 4.612241 -61.682960 1.742393 28.702173 -40.755845 -17.015572 -9.775812 0.000000 0.000000 0.000000 -4.111644 -4.376504 1.043739 2.407060 -0.103565 -36.836580 12.000743 -6.489053 -1.848255 -86.658694 10.949129 -6.168828 -50.912387 46.500488 38.687691 0.000000 0.000000 0.000000 
-0.541043 100.267242 240.012131 0.000000 0.000000 0.000000 1.630179 39.415458 -4.547812 -22.582035 19.152489 9.013694 23.377210 10.698138 0.476257 5.013490 -15.852181 20.477476 -15.402686 -0.940810 -2.873675 0.000000 0.000000 0.000000 1.264029 42.083169 -4.352687 -24.004630 -23.710664 -6.122307 8.302389 -7.735151 -2.184627 11.385078 1.180514 -1.832381 -7.739032 -0.317653 -10.543233 0.000000 0.000000 0.000000 1.830356 36.422144 -4.852688 -1.208918 -8.711433 7.310164 -8.102264 -5.263801 -1.046653 -0.014937 1.162777 -0.371298 0.000000 0.000000 0.000000 -4.898009 -1.948415 -0.825461 12.616660 38.802564 -19.357142 -26.199772 -34.358123 -19.959846 0.000000 0.000000 0.000000 -2.859805 -4.652033 0.833078 19.472379 -9.095333 44.460348 4.516430 3.349754 4.349353 -60.861787 0.598782 29.423396 -39.679383 -12.916911 -9.473658 0.000000 0.000000 0.000000 -4.343795 -4.248152 0.816678 2.045212 -0.050513 -36.681258 12.127638 -6.272240 -1.634958 -85.987171 12.054206 -7.172052 -49.811958 41.239439 37.912133 0.000000 0.000000 0.000000 
